<?xml version="1.0" encoding="UTF-8"?>
<svg width="25px" height="25px" viewBox="0 0 25 25" version="1.1" xmlns="http://www.w3.org/2000/svg" xmlns:xlink="http://www.w3.org/1999/xlink">
    <title>Icon/25px/User@3x</title>
    <g id="Icon/25px/User" stroke="none" stroke-width="1" fill="none" fill-rule="evenodd">
        <path d="M19.2443636,16.741843 L14.8181818,15.6467135 L14.8181818,14.067494 C16.2029091,13.0473106 17.1363636,11.2264284 17.1363636,9.52867182 L17.1363636,6.84591054 C17.1363636,5.58406444 16.0978182,4.5516449 14.8174091,4.5516449 L14.5284091,4.5516449 L13.9202727,3.34715544 C13.7734545,3.05578371 13.4203182,2.92577532 13.1243636,3.04278287 L9.47786364,4.48587595 C8.58613636,4.83919286 7.86363636,5.89608456 7.86363636,6.84667529 L7.86363636,9.52867182 C7.86363636,11.2264284 8.79709091,13.0473106 10.1818182,14.067494 L10.1818182,15.6467135 L5.75563636,16.741843 C4.72404545,16.9972712 4,17.9149775 4,18.9672806 L4,21 L21,21 L21,18.9672806 C21,17.9149775 20.2759545,16.9972712 19.2443636,16.741843 Z" id="Shape-Copy" fill="#C3CFDA"></path>
    </g>
</svg>